<svg width="12" height="12" viewBox="0 0 12 12" fill="none" xmlns="http://www.w3.org/2000/svg">
<g clip-path="url(#clip0_1_1340)">
<path d="M7.371 0.541497C7.42028 0.541409 7.46909 0.551034 7.51465 0.569823C7.56021 0.588612 7.60161 0.616195 7.6365 0.650997L11.349 4.3635C11.4193 4.43382 11.4588 4.52919 11.4588 4.62862C11.4588 4.72806 11.4193 4.82342 11.349 4.89375C10.989 5.25375 10.545 5.33475 10.2218 5.33475C10.089 5.33475 9.9705 5.32125 9.87675 5.3055L7.52625 7.656C7.58813 7.9053 7.62828 8.15951 7.64625 8.41575C7.68075 8.94225 7.62225 9.681 7.10625 10.197C7.03593 10.2673 6.94056 10.3068 6.84113 10.3068C6.74169 10.3068 6.64633 10.2673 6.576 10.197L4.45425 8.076L2.06775 10.4625C1.9215 10.6087 1.1535 11.139 1.00725 10.9927C0.861003 10.8465 1.39125 10.0777 1.5375 9.93225L3.924 7.54575L1.803 5.424C1.7327 5.35367 1.69321 5.25831 1.69321 5.15887C1.69321 5.05944 1.7327 4.96407 1.803 4.89375C2.319 4.37775 3.05775 4.3185 3.58425 4.35375C3.8405 4.3717 4.0947 4.41185 4.344 4.47375L6.6945 2.124C6.67488 2.00978 6.66485 1.89413 6.6645 1.77825C6.6645 1.45575 6.7455 1.01175 7.10625 0.650997C7.17653 0.580895 7.27174 0.541518 7.371 0.541497Z" fill="white"/>
</g>
<defs>
<clipPath id="clip0_1_1340">
<rect width="12" height="12" fill="white"/>
</clipPath>
</defs>
</svg>
