<svg width="24" height="24" viewBox="0 0 24 24" fill="none" xmlns="http://www.w3.org/2000/svg">
<path d="M11.8095 6.8572C13.0719 6.8572 14.0952 5.83385 14.0952 4.57148C14.0952 3.30912 13.0719 2.28577 11.8095 2.28577C10.5472 2.28577 9.5238 3.30912 9.5238 4.57148C9.5238 5.83385 10.5472 6.8572 11.8095 6.8572Z" fill="white"/>
<path d="M11.8095 14.4762C13.0719 14.4762 14.0952 13.4529 14.0952 12.1905C14.0952 10.9281 13.0719 9.90479 11.8095 9.90479C10.5472 9.90479 9.5238 10.9281 9.5238 12.1905C9.5238 13.4529 10.5472 14.4762 11.8095 14.4762Z" fill="white"/>
<path d="M11.8095 22.0952C13.0719 22.0952 14.0952 21.0719 14.0952 19.8095C14.0952 18.5472 13.0719 17.5238 11.8095 17.5238C10.5472 17.5238 9.5238 18.5472 9.5238 19.8095C9.5238 21.0719 10.5472 22.0952 11.8095 22.0952Z" fill="white"/>
</svg>
