<svg width="280" height="56" viewBox="0 0 280 56" fill="none" xmlns="http://www.w3.org/2000/svg">
<path d="M20.8503 56C16.8587 56 13.2662 55.1782 10.073 53.5346C6.92662 51.844 4.46122 49.5195 2.67673 46.561C0.892243 43.6025 0 40.2449 0 36.488C0 32.7312 0.892243 29.3736 2.67673 26.4151C4.46122 23.4566 6.92662 21.1556 10.073 19.5119C13.2662 17.8214 16.8587 16.9761 20.8503 16.9761C24.8419 16.9761 28.4109 17.8214 31.5572 19.5119C34.7036 21.1556 37.169 23.4566 38.9535 26.4151C40.7379 29.3736 41.6302 32.7312 41.6302 36.488C41.6302 40.2449 40.7379 43.6025 38.9535 46.561C37.169 49.5195 34.7036 51.844 31.5572 53.5346C28.4109 55.1782 24.8419 56 20.8503 56ZM20.8503 46.9837C23.6679 46.9837 25.969 46.0444 27.7535 44.166C29.5849 42.2407 30.5006 39.6813 30.5006 36.488C30.5006 33.2948 29.5849 30.7589 27.7535 28.8805C25.969 26.9551 23.6679 25.9925 20.8503 25.9925C18.0327 25.9925 15.7082 26.9551 13.8767 28.8805C12.0453 30.7589 11.1296 33.2948 11.1296 36.488C11.1296 39.6813 12.0453 42.2407 13.8767 44.166C15.7082 46.0444 18.0327 46.9837 20.8503 46.9837Z" fill="white"/>
<path d="M72.0092 16.9761C76.7052 16.9761 80.4855 18.3849 83.3501 21.2025C86.2616 24.0201 87.7174 28.1996 87.7174 33.7409V55.4365H76.7287V35.4314C76.7287 32.426 76.0713 30.1954 74.7564 28.7396C73.4415 27.2369 71.5396 26.4855 69.0507 26.4855C66.2801 26.4855 64.0729 27.3543 62.4293 29.0918C60.7857 30.7824 59.9639 33.3182 59.9639 36.6994V55.4365H48.9752V17.5396H59.4708V21.9774C60.9266 20.3807 62.7346 19.1597 64.8947 18.3145C67.0549 17.4222 69.4264 16.9761 72.0092 16.9761Z" fill="white"/>
<path d="M101.834 56C99.9087 56 98.2885 55.3426 96.9737 54.0277C95.6588 52.7128 95.0013 51.0692 95.0013 49.0969C95.0013 47.0776 95.6588 45.4574 96.9737 44.2365C98.2885 42.9686 99.9087 42.3346 101.834 42.3346C103.759 42.3346 105.38 42.9686 106.694 44.2365C108.009 45.4574 108.667 47.0776 108.667 49.0969C108.667 51.0692 108.009 52.7128 106.694 54.0277C105.38 55.3426 103.759 56 101.834 56Z" fill="white"/>
<path d="M140.281 53.605C139.201 54.4034 137.863 55.0138 136.266 55.4365C134.716 55.8122 133.073 56 131.335 56C126.827 56 123.329 54.8495 120.84 52.5484C118.398 50.2474 117.177 46.8662 117.177 42.405V26.8377H111.33V18.3849H117.177V9.15724H128.165V18.3849H137.604V26.8377H128.165V42.2641C128.165 43.8608 128.565 45.1052 129.363 45.9975C130.208 46.8428 131.382 47.2654 132.885 47.2654C134.623 47.2654 136.102 46.7958 137.323 45.8566L140.281 53.605Z" fill="white"/>
<path d="M146.45 17.5396H157.438V55.4365H146.45V17.5396ZM151.944 12.2566C149.925 12.2566 148.281 11.6696 147.013 10.4956C145.745 9.32159 145.111 7.86583 145.111 6.1283C145.111 4.39078 145.745 2.93501 147.013 1.76101C148.281 0.587003 149.925 0 151.944 0C153.963 0 155.607 0.563523 156.875 1.69057C158.143 2.81761 158.777 4.22642 158.777 5.91698C158.777 7.74843 158.143 9.27463 156.875 10.4956C155.607 11.6696 153.963 12.2566 151.944 12.2566Z" fill="white"/>
<path d="M216.17 16.9761C220.913 16.9761 224.67 18.3849 227.441 21.2025C230.258 23.9732 231.667 28.1526 231.667 33.7409V55.4365H220.678V35.4314C220.678 32.426 220.044 30.1954 218.776 28.7396C217.555 27.2369 215.794 26.4855 213.493 26.4855C210.911 26.4855 208.868 27.3308 207.365 29.0214C205.862 30.665 205.111 33.1304 205.111 36.4176V55.4365H194.122V35.4314C194.122 29.4675 191.727 26.4855 186.937 26.4855C184.402 26.4855 182.382 27.3308 180.88 29.0214C179.377 30.665 178.625 33.1304 178.625 36.4176V55.4365H167.637V17.5396H178.132V21.9069C179.541 20.3103 181.255 19.0893 183.275 18.244C185.341 17.3987 187.595 16.9761 190.037 16.9761C192.714 16.9761 195.132 17.5161 197.292 18.5962C199.452 19.6294 201.19 21.1556 202.505 23.1748C204.054 21.2025 206.003 19.6763 208.351 18.5962C210.746 17.5161 213.353 16.9761 216.17 16.9761Z" fill="white"/>
<path d="M279.051 36.6289C279.051 36.7698 278.981 37.756 278.84 39.5874H250.171C250.687 41.9354 251.908 43.7904 253.834 45.1522C255.759 46.514 258.154 47.195 261.019 47.195C262.991 47.195 264.728 46.9132 266.231 46.3497C267.781 45.7392 269.213 44.8 270.528 43.5321L276.375 49.8717C272.806 53.9572 267.593 56 260.737 56C256.463 56 252.683 55.1782 249.396 53.5346C246.109 51.844 243.573 49.5195 241.788 46.561C240.004 43.6025 239.112 40.2449 239.112 36.488C239.112 32.7782 239.98 29.444 241.718 26.4855C243.502 23.4801 245.921 21.1556 248.973 19.5119C252.073 17.8214 255.524 16.9761 259.328 16.9761C263.038 16.9761 266.395 17.7744 269.401 19.3711C272.406 20.9677 274.754 23.2688 276.445 26.2742C278.182 29.2327 279.051 32.6843 279.051 36.6289ZM259.398 25.288C256.91 25.288 254.82 25.9925 253.129 27.4013C251.439 28.8101 250.406 30.7354 250.03 33.1774H268.697C268.321 30.7824 267.288 28.8805 265.597 27.4717C263.907 26.0159 261.84 25.288 259.398 25.288Z" fill="white"/>
</svg>
