<svg width="200" height="40" viewBox="0 0 200 40" fill="none" xmlns="http://www.w3.org/2000/svg">
<path d="M14.8931 40C12.0419 40 9.47589 39.413 7.19497 38.239C4.94759 37.0314 3.18658 35.3711 1.91195 33.2579C0.637317 31.1447 0 28.7463 0 26.0629C0 23.3795 0.637317 20.9811 1.91195 18.8679C3.18658 16.7547 4.94759 15.1111 7.19497 13.9371C9.47589 12.7296 12.0419 12.1258 14.8931 12.1258C17.7442 12.1258 20.2935 12.7296 22.5409 13.9371C24.7883 15.1111 26.5493 16.7547 27.8239 18.8679C29.0985 20.9811 29.7358 23.3795 29.7358 26.0629C29.7358 28.7463 29.0985 31.1447 27.8239 33.2579C26.5493 35.3711 24.7883 37.0314 22.5409 38.239C20.2935 39.413 17.7442 40 14.8931 40ZM14.8931 33.5597C16.9057 33.5597 18.5493 32.8889 19.8239 31.5472C21.1321 30.1719 21.7862 28.3438 21.7862 26.0629C21.7862 23.782 21.1321 21.9706 19.8239 20.6289C18.5493 19.2537 16.9057 18.566 14.8931 18.566C12.8805 18.566 11.2201 19.2537 9.91195 20.6289C8.60377 21.9706 7.94969 23.782 7.94969 26.0629C7.94969 28.3438 8.60377 30.1719 9.91195 31.5472C11.2201 32.8889 12.8805 33.5597 14.8931 33.5597Z" fill="white"/>
<path d="M51.4351 12.1258C54.7894 12.1258 57.4896 13.1321 59.5358 15.1447C61.6154 17.1572 62.6553 20.1426 62.6553 24.1006V39.5975H54.8062V25.3082C54.8062 23.1614 54.3366 21.5681 53.3974 20.5283C52.4582 19.4549 51.0997 18.9182 49.3219 18.9182C47.3429 18.9182 45.7664 19.5388 44.5924 20.7799C43.4184 21.9874 42.8314 23.7987 42.8314 26.2138V39.5975H34.9823V12.5283H42.4792V15.6981C43.519 14.5577 44.8104 13.6855 46.3534 13.0818C47.8964 12.4444 49.5903 12.1258 51.4351 12.1258Z" fill="white"/>
<path d="M72.7386 40C71.3633 40 70.2061 39.5304 69.2669 38.5912C68.3277 37.652 67.8581 36.478 67.8581 35.0692C67.8581 33.6268 68.3277 32.4696 69.2669 31.5975C70.2061 30.6918 71.3633 30.239 72.7386 30.239C74.1139 30.239 75.2711 30.6918 76.2103 31.5975C77.1495 32.4696 77.6191 33.6268 77.6191 35.0692C77.6191 36.478 77.1495 37.652 76.2103 38.5912C75.2711 39.5304 74.1139 40 72.7386 40Z" fill="white"/>
<path d="M100.201 38.2893C99.4294 38.8595 98.4734 39.2956 97.3329 39.5975C96.226 39.8658 95.052 40 93.8109 40C90.5908 40 88.0919 39.1782 86.3141 37.5346C84.5698 35.891 83.6977 33.4759 83.6977 30.2893V19.1698H79.5216V13.1321H83.6977V6.54088H91.5468V13.1321H98.2889V19.1698H91.5468V30.1887C91.5468 31.3291 91.8319 32.218 92.4021 32.8553C93.0059 33.4591 93.8445 33.761 94.9178 33.761C96.1589 33.761 97.2155 33.4256 98.0877 32.7547L100.201 38.2893Z" fill="white"/>
<path d="M104.607 12.5283H112.456V39.5975H104.607V12.5283ZM108.531 8.75472C107.089 8.75472 105.915 8.33543 105.009 7.49686C104.104 6.65828 103.651 5.61845 103.651 4.37736C103.651 3.13627 104.104 2.09644 105.009 1.25786C105.915 0.419288 107.089 0 108.531 0C109.974 0 111.148 0.402517 112.053 1.20755C112.959 2.01258 113.412 3.01887 113.412 4.22642C113.412 5.53459 112.959 6.62474 112.053 7.49686C111.148 8.33543 109.974 8.75472 108.531 8.75472Z" fill="white"/>
<path d="M154.407 12.1258C157.795 12.1258 160.479 13.1321 162.458 15.1447C164.47 17.1237 165.476 20.109 165.476 24.1006V39.5975H157.627V25.3082C157.627 23.1614 157.175 21.5681 156.269 20.5283C155.397 19.4549 154.139 18.9182 152.495 18.9182C150.65 18.9182 149.191 19.522 148.118 20.7296C147.045 21.9036 146.508 23.6646 146.508 26.0126V39.5975H138.659V25.3082C138.659 21.0482 136.948 18.9182 133.527 18.9182C131.715 18.9182 130.273 19.522 129.2 20.7296C128.126 21.9036 127.59 23.6646 127.59 26.0126V39.5975H119.741V12.5283H127.237V15.6478C128.244 14.5073 129.468 13.6352 130.91 13.0314C132.386 12.4277 133.996 12.1258 135.741 12.1258C137.653 12.1258 139.38 12.5115 140.923 13.283C142.466 14.021 143.707 15.1111 144.646 16.5535C145.753 15.1447 147.145 14.0545 148.822 13.283C150.533 12.5115 152.395 12.1258 154.407 12.1258Z" fill="white"/>
<path d="M199.322 26.1635C199.322 26.2642 199.272 26.9686 199.171 28.2767H178.693C179.062 29.9539 179.934 31.2788 181.31 32.2516C182.685 33.2243 184.396 33.7107 186.442 33.7107C187.851 33.7107 189.092 33.5094 190.165 33.1069C191.272 32.6709 192.295 32 193.234 31.0943L197.41 35.6226C194.861 38.5409 191.138 40 186.241 40C183.188 40 180.488 39.413 178.14 38.239C175.792 37.0314 173.981 35.3711 172.706 33.2579C171.431 31.1447 170.794 28.7463 170.794 26.0629C170.794 23.413 171.415 21.0314 172.656 18.9182C173.93 16.7715 175.658 15.1111 177.838 13.9371C180.052 12.7296 182.517 12.1258 185.234 12.1258C187.884 12.1258 190.283 12.696 192.429 13.8365C194.576 14.9769 196.253 16.6205 197.461 18.7673C198.702 20.8805 199.322 23.3459 199.322 26.1635ZM185.285 18.0629C183.507 18.0629 182.014 18.566 180.807 19.5723C179.599 20.5786 178.861 21.9539 178.593 23.6981H191.926C191.658 21.9874 190.92 20.6289 189.712 19.6226C188.505 18.5828 187.029 18.0629 185.285 18.0629Z" fill="white"/>
</svg>
